<?xml version="1.0" encoding="UTF-8"?>
<!DOCTYPE svg PUBLIC "-//W3C//DTD SVG 1.1//EN" "http://www.w3.org/Graphics/SVG/1.1/DTD/svg11.dtd">
<svg version="1.1" xmlns="http://www.w3.org/2000/svg" xmlns:xlink="http://www.w3.org/1999/xlink" x="0" y="0" width="512" height="512" viewBox="0, 0, 512, 512">
  <g id="Layer_1" transform="translate(0, 0)">
    <path d="M0,0 L512,0 L512,512 L0,512 L0,0 z" fill="#049992"/>
    <path d="M233.109,164.594 L233.109,197.215 L139.623,197.215 L139.623,164.594 L233.109,164.594 z" fill="#FFEE91"/>
    <path d="M233.109,360.958 L233.109,393.579 L139.623,393.579 L139.623,360.958 L233.109,360.958 z" fill="#FCC531"/>
    <path d="M234.412,262.776 L234.412,295.397 L140.926,295.397 L140.926,262.776 L234.412,262.776 z" fill="#FFE436"/>
    <path d="M140.124,22.184 L234.912,22.184 L234.912,491.5 L140.124,491.5 L140.124,22.184 z" fill-opacity="0" stroke="#FCC531" stroke-width="7"/>
    <path d="M370.537,164.594 L370.537,197.215 L277.051,197.215 L277.051,164.594 L370.537,164.594 z" fill="#FFEE91"/>
    <path d="M370.537,360.958 L370.537,393.579 L277.051,393.579 L277.051,360.958 L370.537,360.958 z" fill="#FCC531"/>
    <path d="M371.839,262.776 L371.839,295.397 L278.353,295.397 L278.353,262.776 L371.839,262.776 z" fill="#FFE436"/>
    <path d="M277.551,22.184 L372.339,22.184 L372.339,491.5 L277.551,491.5 L277.551,22.184 z" fill-opacity="0" stroke="#FCC531" stroke-width="7"/>
    <g>
      <path d="M188.169,92.754 C177.873,92.754 169.527,84.408 169.527,74.112 C169.527,63.817 177.873,55.47 188.169,55.47 C198.464,55.47 206.81,63.817 206.81,74.112 C206.81,84.408 198.464,92.754 188.169,92.754 z" fill="#FCC531"/>
      <path d="M188.169,92.754 C177.873,92.754 169.527,84.408 169.527,74.112 C169.527,63.817 177.873,55.47 188.169,55.47 C198.464,55.47 206.81,63.817 206.81,74.112 C206.81,84.408 198.464,92.754 188.169,92.754 z" fill-opacity="0" stroke="#FCC531" stroke-width="1"/>
    </g>
    <g>
      <path d="M325.596,92.754 C315.301,92.754 306.954,84.408 306.954,74.112 C306.954,63.817 315.301,55.47 325.596,55.47 C335.892,55.47 344.238,63.817 344.238,74.112 C344.238,84.408 335.892,92.754 325.596,92.754 z" fill="#FCC531"/>
      <path d="M325.596,92.754 C315.301,92.754 306.954,84.408 306.954,74.112 C306.954,63.817 315.301,55.47 325.596,55.47 C335.892,55.47 344.238,63.817 344.238,74.112 C344.238,84.408 335.892,92.754 325.596,92.754 z" fill-opacity="0" stroke="#FCC531" stroke-width="1"/>
    </g>
  </g>
</svg>
